<svg width="32" height="32" viewBox="0 0 32 32" fill="none" xmlns="http://www.w3.org/2000/svg">
<path d="M28.4444 0.222168C29.3333 0.222168 30.0864 0.53081 30.7037 1.14809C31.321 1.76538 31.6296 2.49377 31.6296 3.33328V22.2962C31.6296 23.1851 31.321 23.9382 30.7037 24.5555C30.0864 25.1728 29.3333 25.4814 28.4444 25.4814H6.2963L0 31.7777V3.33328C0 2.49377 0.308642 1.76538 0.925926 1.14809C1.54321 0.53081 2.2963 0.222168 3.18519 0.222168H28.4444ZM11.037 14.4444V11.2592H7.92593V14.4444H11.037ZM17.4074 14.4444V11.2592H14.2222V14.4444H17.4074ZM23.7037 14.4444V11.2592H20.5185V14.4444H23.7037Z" fill="white"/>
</svg>
