<svg width="351" height="63" viewBox="0 0 351 63" fill="none" xmlns="http://www.w3.org/2000/svg">
    <path d="M23.1652 54.6848C10.5645 50.2147 3.97276 36.3747 8.44218 23.7723C12.9116 11.1698 26.7497 4.57711 39.3504 9.04715C51.9511 13.5172 58.5428 27.3572 54.0734 39.9597C49.604 52.5622 35.7659 59.1548 23.1652 54.6848Z" fill="#2F7FEC"/>
    <path d="M23.9088 49.7628C12.42 45.6978 6.40135 33.0877 10.4658 21.5972C14.5302 10.1068 27.1385 4.08731 38.6274 8.15228C50.1162 12.2173 56.1348 24.8274 52.0704 36.3178C48.006 47.8082 35.3976 53.8277 23.9088 49.7628Z" fill="white"/>
    <path d="M10.2142 32.667C8.17635 21.0493 15.9411 9.97901 27.5572 7.94089C39.1733 5.90277 50.2421 13.6686 52.2799 25.2863C54.3177 36.9041 46.553 47.9744 34.9369 50.0125C23.3207 52.0506 12.252 44.2848 10.2142 32.667Z" fill="#2F7FEC"/>
    <path d="M11.5099 34.1388C9.59664 23.2389 16.8805 12.8517 27.7789 10.9382C38.6772 9.02471 49.063 16.3096 50.9763 27.2095C52.8895 38.1093 45.6056 48.4966 34.7072 50.4101C23.8089 52.3236 13.4231 45.0387 11.5099 34.1388Z" fill="white"/>
    <path d="M35.6584 20.4943C35.6584 20.4943 38.1286 23.1295 39.8303 24.2275C41.5319 25.3804 42.026 25.6 41.6417 26.2588C41.2575 26.9176 41.2575 26.9176 41.2575 26.9176C41.2575 26.9176 48.0641 31.1999 49.1071 31.5842C50.15 31.9685 49.2718 32.8469 48.5582 33.2861C47.7897 33.7253 47.2956 33.9449 47.2956 33.9449C47.2956 33.9449 45.0999 36.5252 41.8064 37.184C38.5677 37.8428 33.2432 36.9095 29.8398 39.4898C26.4365 42.0701 26.0523 48.4385 26.0523 48.3287C26.0523 48.2189 21.7707 41.4113 25.5582 34.439C25.5582 34.439 20.4532 36.7448 18.6418 45.3092C18.6418 45.3092 12.4938 34.5488 20.5081 24.6667C28.5224 14.7847 33.7372 12.973 33.7372 12.973C33.7372 12.973 32.7491 17.7493 35.6584 20.4943Z" fill="#2F7FEC"/>
    <path d="M33.4639 19.8904C33.4639 19.8904 32.4209 18.5179 32.4758 16.0474C32.4758 16.0474 30.5546 17.0905 29.9508 19.5061C30.0056 19.4512 31.7622 18.6277 33.4639 19.8904Z" fill="white"/>
    <path d="M39.3369 26.8627C39.3369 26.8627 37.745 25.7098 36.208 25.4902C36.1532 25.4353 36.8668 27.796 39.3369 26.8627Z" fill="white"/>
    <path d="M18.5877 35.1526L18.6426 45.3091C18.6426 45.3091 18.8073 46.3522 18.6426 46.2424C18.478 46.1326 14.1963 42.7288 11.7262 36.8545C9.25602 30.9802 10.9577 24.5569 10.9577 24.5569L11.2322 28.0156C11.2322 28.0156 12.2202 34.6036 14.0866 35.0428C15.9529 35.4271 16.9959 31.5292 16.9959 31.5292L18.5877 35.1526Z" fill="#2F7FEC"/>
    <path d="M91.0479 37.3047C91.0479 38.5215 90.8154 39.6631 90.3506 40.7295C89.8857 41.7959 89.25 42.7324 88.4434 43.5391C87.6504 44.332 86.7207 44.9609 85.6543 45.4258C84.5879 45.8906 83.4463 46.123 82.2295 46.123H67.5254V16.7148H82.2295C83.4463 16.7148 84.5879 16.9473 85.6543 17.4121C86.7207 17.877 87.6504 18.5127 88.4434 19.3193C89.25 20.1123 89.8857 21.042 90.3506 22.1084C90.8154 23.1748 91.0479 24.3164 91.0479 25.5332C91.0479 26.0801 90.9727 26.6406 90.8223 27.2148C90.6719 27.7891 90.46 28.3428 90.1865 28.876C89.9131 29.4092 89.585 29.8945 89.2021 30.332C88.8193 30.7695 88.3955 31.1318 87.9307 31.4189C88.4092 31.6787 88.8398 32.0342 89.2227 32.4854C89.6055 32.9229 89.9336 33.4082 90.207 33.9414C90.4805 34.4746 90.6855 35.0352 90.8223 35.623C90.9727 36.1973 91.0479 36.7578 91.0479 37.3047ZM73.4111 40.2373H82.2295C82.6396 40.2373 83.0225 40.1621 83.3779 40.0117C83.7334 39.8613 84.041 39.6562 84.3008 39.3965C84.5742 39.123 84.7861 38.8086 84.9365 38.4531C85.0869 38.0977 85.1621 37.7148 85.1621 37.3047C85.1621 36.8945 85.0869 36.5117 84.9365 36.1562C84.7861 35.8008 84.5742 35.4932 84.3008 35.2334C84.041 34.96 83.7334 34.748 83.3779 34.5977C83.0225 34.4473 82.6396 34.3721 82.2295 34.3721H73.4111V40.2373ZM73.4111 28.4863H82.2295C82.6396 28.4863 83.0225 28.4111 83.3779 28.2607C83.7334 28.1104 84.041 27.9053 84.3008 27.6455C84.5742 27.3721 84.7861 27.0576 84.9365 26.7021C85.0869 26.333 85.1621 25.9434 85.1621 25.5332C85.1621 25.123 85.0869 24.7402 84.9365 24.3848C84.7861 24.0293 84.5742 23.7217 84.3008 23.4619C84.041 23.1885 83.7334 22.9766 83.3779 22.8262C83.0225 22.6758 82.6396 22.6006 82.2295 22.6006H73.4111V28.4863ZM124.312 31.542C124.312 32.9365 124.127 34.2832 123.758 35.582C123.402 36.8672 122.896 38.0771 122.24 39.2119C121.584 40.333 120.791 41.3584 119.861 42.2881C118.932 43.2178 117.906 44.0176 116.785 44.6875C115.664 45.3438 114.454 45.8496 113.155 46.2051C111.856 46.5742 110.51 46.7588 109.115 46.7588C107.721 46.7588 106.374 46.5742 105.075 46.2051C103.79 45.8496 102.58 45.3438 101.445 44.6875C100.324 44.0176 99.2988 43.2178 98.3691 42.2881C97.4395 41.3584 96.6396 40.333 95.9697 39.2119C95.3135 38.0771 94.8008 36.8672 94.4316 35.582C94.0762 34.2832 93.8984 32.9365 93.8984 31.542C93.8984 30.1475 94.0762 28.8008 94.4316 27.502C94.8008 26.2031 95.3135 24.9932 95.9697 23.8721C96.6396 22.751 97.4395 21.7256 98.3691 20.7959C99.2988 19.8662 100.324 19.0732 101.445 18.417C102.58 17.7607 103.79 17.2549 105.075 16.8994C106.374 16.5303 107.721 16.3457 109.115 16.3457C110.51 16.3457 111.856 16.5303 113.155 16.8994C114.454 17.2549 115.664 17.7607 116.785 18.417C117.906 19.0732 118.932 19.8662 119.861 20.7959C120.791 21.7256 121.584 22.751 122.24 23.8721C122.896 24.9932 123.402 26.2031 123.758 27.502C124.127 28.8008 124.312 30.1475 124.312 31.542ZM118.467 31.542C118.467 30.2568 118.221 29.0469 117.729 27.9121C117.236 26.7637 116.566 25.7725 115.719 24.9385C114.885 24.0908 113.894 23.4209 112.745 22.9287C111.61 22.4365 110.4 22.1904 109.115 22.1904C107.816 22.1904 106.6 22.4365 105.465 22.9287C104.33 23.4209 103.339 24.0908 102.491 24.9385C101.644 25.7725 100.974 26.7637 100.481 27.9121C99.9893 29.0469 99.7432 30.2568 99.7432 31.542C99.7432 32.8271 99.9893 34.0371 100.481 35.1719C100.974 36.293 101.644 37.2773 102.491 38.125C103.339 38.9727 104.33 39.6426 105.465 40.1348C106.6 40.627 107.816 40.873 109.115 40.873C110.4 40.873 111.61 40.627 112.745 40.1348C113.894 39.6426 114.885 38.9727 115.719 38.125C116.566 37.2773 117.236 36.293 117.729 35.1719C118.221 34.0371 118.467 32.8271 118.467 31.542ZM134.073 22.6006V34.3721H139.959C140.766 34.3721 141.524 34.2217 142.235 33.9209C142.946 33.6064 143.568 33.1826 144.102 32.6494C144.635 32.1162 145.052 31.4941 145.353 30.7832C145.667 30.0586 145.824 29.293 145.824 28.4863C145.824 27.6797 145.667 26.9209 145.353 26.21C145.052 25.4854 144.635 24.8564 144.102 24.3232C143.568 23.79 142.946 23.373 142.235 23.0723C141.524 22.7578 140.766 22.6006 139.959 22.6006H134.073ZM134.073 46.123H128.188V16.7148H139.959C141.039 16.7148 142.078 16.8584 143.076 17.1455C144.074 17.4189 145.004 17.8154 145.865 18.335C146.74 18.8408 147.533 19.4561 148.244 20.1807C148.969 20.8916 149.584 21.6846 150.09 22.5596C150.609 23.4346 151.006 24.3711 151.279 25.3691C151.566 26.3672 151.71 27.4062 151.71 28.4863C151.71 29.498 151.58 30.4824 151.32 31.4395C151.074 32.3965 150.712 33.3057 150.233 34.167C149.769 35.0283 149.194 35.8213 148.511 36.5459C147.827 37.2705 147.062 37.8994 146.214 38.4326L149.475 46.123H143.22L140.656 40.1963L134.073 40.2373V46.123ZM176.381 46.123H153.617L166.168 22.6006H153.617V16.7148H176.381L163.871 40.2373H176.381V46.123ZM197.688 46.123H191.803V16.7148H197.688V28.4863H209.439V16.7148H215.325V46.123H209.439V34.3721H197.688V46.123ZM243.995 34.3721C243.995 35.999 243.688 37.5303 243.072 38.9658C242.457 40.3877 241.616 41.6318 240.55 42.6982C239.483 43.751 238.232 44.585 236.797 45.2002C235.375 45.8154 233.851 46.123 232.224 46.123C230.597 46.123 229.065 45.8154 227.63 45.2002C226.208 44.585 224.964 43.751 223.897 42.6982C222.845 41.6318 222.011 40.3877 221.396 38.9658C220.78 37.5303 220.473 35.999 220.473 34.3721V16.7148H226.338V34.3721C226.338 35.1787 226.488 35.9375 226.789 36.6484C227.104 37.3594 227.527 37.9814 228.061 38.5146C228.594 39.0479 229.216 39.4717 229.927 39.7861C230.651 40.0869 231.417 40.2373 232.224 40.2373C233.03 40.2373 233.789 40.0869 234.5 39.7861C235.225 39.4717 235.854 39.0479 236.387 38.5146C236.92 37.9814 237.337 37.3594 237.638 36.6484C237.952 35.9375 238.109 35.1787 238.109 34.3721V16.7148H243.995V34.3721ZM272.624 46.123H266.328L254.987 26.7637V46.123H249.102V16.7148H255.397L266.738 36.0947V16.7148H272.624V46.123ZM290.445 46.123H284.58V22.6006H275.741V16.7148H299.264V22.6006H290.445V46.123ZM322.54 46.123H302.381V16.7148H322.54V22.6006H308.267V28.4863H317.926V34.3721H308.267V40.2373H322.54V46.123ZM332.548 22.6006V34.3721H338.434C339.24 34.3721 339.999 34.2217 340.71 33.9209C341.421 33.6064 342.043 33.1826 342.576 32.6494C343.109 32.1162 343.526 31.4941 343.827 30.7832C344.142 30.0586 344.299 29.293 344.299 28.4863C344.299 27.6797 344.142 26.9209 343.827 26.21C343.526 25.4854 343.109 24.8564 342.576 24.3232C342.043 23.79 341.421 23.373 340.71 23.0723C339.999 22.7578 339.24 22.6006 338.434 22.6006H332.548ZM332.548 46.123H326.662V16.7148H338.434C339.514 16.7148 340.553 16.8584 341.551 17.1455C342.549 17.4189 343.479 17.8154 344.34 18.335C345.215 18.8408 346.008 19.4561 346.719 20.1807C347.443 20.8916 348.059 21.6846 348.564 22.5596C349.084 23.4346 349.48 24.3711 349.754 25.3691C350.041 26.3672 350.185 27.4062 350.185 28.4863C350.185 29.498 350.055 30.4824 349.795 31.4395C349.549 32.3965 349.187 33.3057 348.708 34.167C348.243 35.0283 347.669 35.8213 346.985 36.5459C346.302 37.2705 345.536 37.8994 344.688 38.4326L347.949 46.123H341.694L339.131 40.1963L332.548 40.2373V46.123Z" fill="white"/>
</svg>
