<svg width="50" height="50" viewBox="0 0 50 50" fill="none" xmlns="http://www.w3.org/2000/svg">
<circle cx="25" cy="25" r="25" fill="#2F7FEC"/>
<path d="M12.4746 19.3896L7.35938 31H5.11816L10.2246 19.917H3.60645V18.2031H12.4746V19.3896ZM22.5293 25.6123C22.5293 27.4521 22.1836 28.8408 21.4922 29.7783C20.8066 30.71 19.7607 31.1758 18.3545 31.1758C16.9717 31.1758 15.9287 30.7217 15.2256 29.8135C14.5283 28.8994 14.1709 27.5488 14.1533 25.7617V23.5469C14.1533 21.707 14.4961 20.3271 15.1816 19.4072C15.873 18.4873 16.9248 18.0273 18.3369 18.0273C19.7373 18.0273 20.7803 18.4756 21.4658 19.3721C22.1572 20.2686 22.5117 21.6104 22.5293 23.3975V25.6123ZM20.3936 23.2217C20.3936 22.0205 20.2295 21.1416 19.9014 20.585C19.5732 20.0225 19.0518 19.7412 18.3369 19.7412C17.6396 19.7412 17.127 20.0078 16.7988 20.541C16.4707 21.0684 16.2979 21.8945 16.2803 23.0195V25.9199C16.2803 27.1152 16.4473 28.0059 16.7812 28.5918C17.1152 29.1777 17.6396 29.4707 18.3545 29.4707C19.04 29.4707 19.5469 29.2012 19.875 28.6621C20.2031 28.1172 20.376 27.2676 20.3936 26.1133V23.2217ZM32.7598 25.6123C32.7598 27.4521 32.4141 28.8408 31.7227 29.7783C31.0371 30.71 29.9912 31.1758 28.585 31.1758C27.2021 31.1758 26.1592 30.7217 25.4561 29.8135C24.7588 28.8994 24.4014 27.5488 24.3838 25.7617V23.5469C24.3838 21.707 24.7266 20.3271 25.4121 19.4072C26.1035 18.4873 27.1553 18.0273 28.5674 18.0273C29.9678 18.0273 31.0107 18.4756 31.6963 19.3721C32.3877 20.2686 32.7422 21.6104 32.7598 23.3975V25.6123ZM30.624 23.2217C30.624 22.0205 30.46 21.1416 30.1318 20.585C29.8037 20.0225 29.2822 19.7412 28.5674 19.7412C27.8701 19.7412 27.3574 20.0078 27.0293 20.541C26.7012 21.0684 26.5283 21.8945 26.5107 23.0195V25.9199C26.5107 27.1152 26.6777 28.0059 27.0117 28.5918C27.3457 29.1777 27.8701 29.4707 28.585 29.4707C29.2705 29.4707 29.7773 29.2012 30.1055 28.6621C30.4336 28.1172 30.6064 27.2676 30.624 26.1133V23.2217ZM37.2158 26.2451V31H34.9922V18.2031H39.8877C41.3174 18.2031 42.4512 18.5752 43.2891 19.3193C44.1328 20.0635 44.5547 21.0479 44.5547 22.2725C44.5547 23.5264 44.1416 24.502 43.3154 25.1992C42.4951 25.8965 41.3438 26.2451 39.8613 26.2451H37.2158ZM37.2158 24.4609H39.8877C40.6787 24.4609 41.2822 24.2764 41.6982 23.9072C42.1143 23.5322 42.3223 22.9932 42.3223 22.29C42.3223 21.5986 42.1113 21.0479 41.6895 20.6377C41.2676 20.2217 40.6875 20.0078 39.9492 19.9961H37.2158V24.4609Z" fill="white"/>
</svg>
