<svg width="50" height="50" viewBox="0 0 50 50" fill="none" xmlns="http://www.w3.org/2000/svg">
<circle cx="25" cy="25" r="25" fill="#2F7FEC"/>
<path d="M24.625 39.125L18.642 35.9349C16.9364 35.0275 15.51 33.6727 14.516 32.016C13.522 30.3593 12.998 28.4633 13 26.5312V13.9375C13.0005 13.4238 13.2048 12.9313 13.5681 12.568C13.9313 12.2048 14.4238 12.0005 14.9375 12H34.3125C34.8262 12.0005 35.3187 12.2048 35.682 12.568C36.0452 12.9313 36.2495 13.4238 36.25 13.9375V26.5312C36.2521 28.4633 35.728 30.3593 34.734 32.016C33.74 33.6727 32.3137 35.0275 30.608 35.9349L24.625 39.125ZM14.9375 13.9375V26.5312C14.9359 28.1121 15.3648 29.6635 16.1782 31.0189C16.9917 32.3744 18.1589 33.4828 19.5546 34.2251L24.625 36.9288L29.6954 34.226C31.0913 33.4837 32.2586 32.3752 33.072 31.0195C33.8854 29.6638 34.3143 28.1122 34.3125 26.5312V13.9375H14.9375Z" fill="white"/>
<path d="M24.625 34.5496V15.875H32.375V26.3423C32.3749 27.5703 32.0415 28.7751 31.4102 29.8283C30.7789 30.8815 29.8735 31.7436 28.7906 32.3224L24.625 34.5496Z" fill="white"/>
</svg>
