<svg width="50" height="50" viewBox="0 0 50 50" fill="none" xmlns="http://www.w3.org/2000/svg">
<circle cx="25" cy="25" r="25" fill="#2F7FEC"/>
<path d="M16.8066 18.7969L10.918 32H9.02344L14.8926 19.2656H7.19727V17.7812H16.8066V18.7969ZM25.7812 25.75C25.4036 26.1992 24.9512 26.5605 24.4238 26.834C23.903 27.1074 23.3301 27.2441 22.7051 27.2441C21.8848 27.2441 21.1686 27.0423 20.5566 26.6387C19.9512 26.235 19.4824 25.6686 19.1504 24.9395C18.8184 24.2038 18.6523 23.3932 18.6523 22.5078C18.6523 21.5573 18.8314 20.7012 19.1895 19.9395C19.554 19.1777 20.0684 18.5951 20.7324 18.1914C21.3965 17.7878 22.1712 17.5859 23.0566 17.5859C24.4629 17.5859 25.5697 18.1133 26.377 19.168C27.1908 20.2161 27.5977 21.6484 27.5977 23.4648V23.9922C27.5977 26.7591 27.0508 28.7806 25.957 30.0566C24.8633 31.3262 23.2129 31.9772 21.0059 32.0098H20.6543V30.4863H21.0352C22.526 30.4603 23.6719 30.0729 24.4727 29.3242C25.2734 28.569 25.7096 27.3776 25.7812 25.75ZM22.998 25.75C23.6035 25.75 24.1602 25.5645 24.668 25.1934C25.1823 24.8223 25.5566 24.3633 25.791 23.8164V23.0938C25.791 21.9089 25.5339 20.9453 25.0195 20.2031C24.5052 19.4609 23.8542 19.0898 23.0664 19.0898C22.2721 19.0898 21.6341 19.3958 21.1523 20.0078C20.6706 20.6133 20.4297 21.4141 20.4297 22.4102C20.4297 23.3802 20.6608 24.181 21.123 24.8125C21.5918 25.4375 22.2168 25.75 22.998 25.75ZM29.9316 20.5156C29.9316 19.6628 30.2018 18.9596 30.7422 18.4062C31.2891 17.8529 31.9889 17.5762 32.8418 17.5762C33.7077 17.5762 34.4076 17.8561 34.9414 18.416C35.4818 18.9694 35.752 19.6888 35.752 20.5742V21.2676C35.752 22.127 35.4785 22.8301 34.9316 23.377C34.3913 23.9173 33.7012 24.1875 32.8613 24.1875C32.015 24.1875 31.3151 23.9173 30.7617 23.377C30.2083 22.8301 29.9316 22.1042 29.9316 21.1992V20.5156ZM31.2793 21.2676C31.2793 21.7754 31.4225 22.1953 31.709 22.5273C31.9954 22.8529 32.3796 23.0156 32.8613 23.0156C33.3236 23.0156 33.6947 22.8561 33.9746 22.5371C34.2611 22.2181 34.4043 21.7819 34.4043 21.2285V20.5156C34.4043 20.0078 34.2643 19.5879 33.9844 19.2559C33.7044 18.9238 33.3236 18.7578 32.8418 18.7578C32.36 18.7578 31.9792 18.9238 31.6992 19.2559C31.4193 19.5879 31.2793 20.0208 31.2793 20.5547V21.2676ZM36.8555 28.5137C36.8555 27.6608 37.1257 26.9609 37.666 26.4141C38.2129 25.8607 38.9128 25.584 39.7656 25.584C40.6185 25.584 41.3184 25.8574 41.8652 26.4043C42.4121 26.9512 42.6855 27.6771 42.6855 28.582V29.2754C42.6855 30.1283 42.4121 30.8314 41.8652 31.3848C41.3249 31.9316 40.6315 32.2051 39.7852 32.2051C38.9388 32.2051 38.2389 31.9349 37.6855 31.3945C37.1322 30.8477 36.8555 30.1217 36.8555 29.2168V28.5137ZM38.2031 29.2754C38.2031 29.7897 38.3464 30.2129 38.6328 30.5449C38.9193 30.8704 39.3034 31.0332 39.7852 31.0332C40.2539 31.0332 40.6283 30.8737 40.9082 30.5547C41.1882 30.2292 41.3281 29.7897 41.3281 29.2363V28.5137C41.3281 27.9993 41.1849 27.5794 40.8984 27.2539C40.6185 26.9284 40.2409 26.7656 39.7656 26.7656C39.3034 26.7656 38.9258 26.9284 38.6328 27.2539C38.3464 27.5729 38.2031 28.0059 38.2031 28.5527V29.2754ZM33.2715 30.9258L32.2461 30.2812L39.1895 19.168L40.2148 19.8125L33.2715 30.9258Z" fill="white"/>
</svg>
