<svg width="50" height="50" viewBox="0 0 50 50" fill="none" xmlns="http://www.w3.org/2000/svg">
<circle cx="25" cy="25" r="25" fill="#2F7FEC"/>
<path fill-rule="evenodd" clip-rule="evenodd" d="M30.2623 14.7108L28.5353 12.9407L29.876 11.6318L31.0424 12.8263L32.7113 12.8056C33.4337 12.7971 34.1506 12.9331 34.8196 13.2056C35.4887 13.4781 36.0966 13.8817 36.6075 14.3925C37.1183 14.9034 37.5219 15.5113 37.7944 16.1804C38.0669 16.8495 38.2029 17.5663 38.1944 18.2887L38.1756 19.9576L39.3682 21.124C39.8848 21.6287 40.2952 22.2316 40.5754 22.8973C40.8556 23.5629 41 24.2778 41 25C41 25.7222 40.8556 26.4371 40.5754 27.1027C40.2952 27.7684 39.8848 28.3713 39.3682 28.876L38.1737 30.0424L38.1944 31.7113C38.2029 32.4337 38.0669 33.1506 37.7944 33.8196C37.5219 34.4887 37.1183 35.0966 36.6075 35.6075C36.0966 36.1183 35.4887 36.5219 34.8196 36.7944C34.1506 37.0669 33.4337 37.2029 32.7113 37.1944L31.0424 37.1756L29.876 38.3682C29.3713 38.8848 28.7684 39.2952 28.1027 39.5754C27.4371 39.8556 26.7222 40 26 40C25.2778 40 24.5629 39.8556 23.8973 39.5754C23.2316 39.2952 22.6287 38.8848 22.124 38.3682L20.9576 37.1737L19.2887 37.1944C18.5663 37.2029 17.8495 37.0669 17.1804 36.7944C16.5113 36.5219 15.9034 36.1183 15.3925 35.6075C14.8817 35.0966 14.4781 34.4887 14.2056 33.8196C13.9331 33.1506 13.7971 32.4337 13.8056 31.7113L13.8244 30.0424L12.6318 28.876C12.1152 28.3713 11.7048 27.7684 11.4246 27.1027C11.1444 26.4371 11 25.7222 11 25C11 24.2778 11.1444 23.5629 11.4246 22.8973C11.7048 22.2316 12.1152 21.6287 12.6318 21.124L13.8263 19.9576L13.8056 18.2887C13.7971 17.5663 13.9331 16.8495 14.2056 16.1804C14.4781 15.5113 14.8817 14.9034 15.3925 14.3925C15.9034 13.8817 16.5113 13.4781 17.1804 13.2056C17.8495 12.9331 18.5663 12.7971 19.2887 12.8056L20.9576 12.8244L22.124 11.6318C22.6287 11.1152 23.2316 10.7048 23.8973 10.4246C24.5629 10.1444 25.2778 10 26 10C26.7222 10 27.4371 10.1444 28.1027 10.4246C28.7684 10.7048 29.3713 11.1152 29.876 11.6318L28.5353 12.9407C28.2052 12.6027 27.8108 12.3342 27.3754 12.1509C26.9401 11.9675 26.4724 11.8731 26 11.8731C25.5276 11.8731 25.0599 11.9675 24.6246 12.1509C24.1892 12.3342 23.7949 12.6027 23.4647 12.9407L21.7396 14.7108L19.2643 14.6808C18.7921 14.6756 18.3236 14.7647 17.8863 14.943C17.449 15.1214 17.0518 15.3853 16.718 15.7193C16.3841 16.0533 16.1204 16.4507 15.9423 16.8881C15.7642 17.3254 15.6753 17.794 15.6808 18.2662L15.7108 20.7377L13.9407 22.4647C13.6027 22.7949 13.3342 23.1892 13.1509 23.6246C12.9675 24.0599 12.8731 24.5276 12.8731 25C12.8731 25.4724 12.9675 25.9401 13.1509 26.3754C13.3342 26.8108 13.6027 27.2052 13.9407 27.5353L15.7108 29.2604L15.6808 31.7357C15.6756 32.2079 15.7647 32.6764 15.943 33.1137C16.1214 33.551 16.3853 33.9482 16.7193 34.282C17.0533 34.6159 17.4507 34.8796 17.8881 35.0577C18.3254 35.2358 18.794 35.3247 19.2662 35.3192L21.7377 35.2892L23.4647 37.0593C23.7949 37.3973 24.1892 37.6658 24.6246 37.8491C25.0599 38.0325 25.5276 38.1269 26 38.1269C26.4724 38.1269 26.9401 38.0325 27.3754 37.8491C27.8108 37.6658 28.2052 37.3973 28.5353 37.0593L30.2604 35.2892L32.7357 35.3192C33.2079 35.3244 33.6764 35.2353 34.1137 35.057C34.551 34.8786 34.9482 34.6147 35.282 34.2807C35.6159 33.9467 35.8796 33.5493 36.0577 33.1119C36.2358 32.6746 36.3247 32.206 36.3192 31.7338L36.2892 29.2623L38.0593 27.5353C38.3973 27.2052 38.6658 26.8108 38.8491 26.3754C39.0325 25.9401 39.1269 25.4724 39.1269 25C39.1269 24.5276 39.0325 24.0599 38.8491 23.6246C38.6658 23.1892 38.3973 22.7949 38.0593 22.4647L36.2892 20.7396L36.3192 18.2643C36.3244 17.7921 36.2353 17.3236 36.057 16.8863C35.8786 16.449 35.6147 16.0518 35.2807 15.718C34.9467 15.3841 34.5493 15.1204 34.1119 14.9423C33.6746 14.7642 33.206 14.6753 32.7338 14.6808L30.2623 14.7108Z" fill="white"/>
<path fill-rule="evenodd" clip-rule="evenodd" d="M30.414 21.5235C30.5013 21.6106 30.5706 21.7141 30.6178 21.828C30.6651 21.9419 30.6894 22.064 30.6894 22.1873C30.6894 22.3106 30.6651 22.4328 30.6178 22.5467C30.5706 22.6606 30.5013 22.764 30.414 22.8511L24.7884 28.4767C24.7013 28.564 24.5979 28.6333 24.484 28.6806C24.37 28.7278 24.2479 28.7522 24.1246 28.7522C24.0013 28.7522 23.8792 28.7278 23.7653 28.6806C23.6514 28.6333 23.5479 28.564 23.4608 28.4767L20.648 25.6639C20.5608 25.5767 20.4917 25.4733 20.4445 25.3594C20.3973 25.2455 20.373 25.1234 20.373 25.0001C20.373 24.8768 20.3973 24.7547 20.4445 24.6408C20.4917 24.5269 20.5608 24.4235 20.648 24.3363C20.7352 24.2491 20.8387 24.18 20.9526 24.1328C21.0665 24.0856 21.1885 24.0613 21.3118 24.0613C21.4351 24.0613 21.5572 24.0856 21.6711 24.1328C21.785 24.18 21.8885 24.2491 21.9756 24.3363L24.1246 26.4871L29.0864 21.5235C29.1735 21.4362 29.2769 21.3669 29.3908 21.3196C29.5047 21.2724 29.6268 21.248 29.7502 21.248C29.8735 21.248 29.9956 21.2724 30.1095 21.3196C30.2234 21.3669 30.3269 21.4362 30.414 21.5235Z" fill="white"/>
</svg>
