<svg width="50" height="50" viewBox="0 0 50 50" fill="none" xmlns="http://www.w3.org/2000/svg">
<circle cx="25" cy="25" r="25" fill="#2F7FEC"/>
<path d="M35.4437 32.4421V31.1789L36.8227 30.1684C36.9481 30.0421 37.0734 29.9158 36.9481 29.7895L35.6944 27.6421C35.6944 27.5158 35.4437 27.5158 35.3183 27.5158L33.8139 28.1474C33.4378 27.8947 33.0617 27.6421 32.6856 27.5158L32.4349 25.8737C32.4349 25.7474 32.3095 25.6211 32.1841 25.6211H29.6768C29.426 25.6211 29.3007 25.7474 29.3007 25.8737L29.0499 27.5158C28.6738 27.7684 28.4231 27.8947 28.047 28.1474L26.5426 27.5158C26.4172 27.5158 26.2919 27.5158 26.1665 27.6421L24.9128 29.7895C24.9128 29.9158 24.9128 30.0421 25.0382 30.1684L26.4172 31.1789V32.4421L25.0382 33.4526C24.9128 33.5789 24.7875 33.7053 24.9128 33.8316L26.1665 35.9789C26.2919 36.1053 26.4172 36.1053 26.5426 36.1053L28.047 35.4737C28.2977 35.7263 28.6738 35.9789 29.0499 36.1053L29.3007 37.7474C29.426 37.8737 29.5514 38 29.6768 38H32.1841C32.3095 38 32.4349 37.8737 32.4349 37.7474L32.6856 36.1053C33.0617 35.8526 33.3124 35.7263 33.6885 35.4737L35.1929 35.9789C35.3183 35.9789 35.4437 35.9789 35.569 35.8526L36.8227 33.7053C36.9481 33.5789 36.9481 33.4526 36.8227 33.4526L35.4437 32.4421ZM30.8051 33.5789C29.8021 33.5789 28.9246 32.6947 28.9246 31.6842C28.9246 30.6737 29.8021 29.7895 30.8051 29.7895C31.808 29.7895 32.6856 30.6737 32.6856 31.6842C32.6856 32.6947 31.808 33.5789 30.8051 33.5789ZM22.3929 34.2105H14.5073C13.8424 34.2105 13.2046 33.9444 12.7344 33.4706C12.2642 32.9968 12 32.3542 12 31.6842V16.5263C12 15.8563 12.2642 15.2137 12.7344 14.7399C13.2046 14.2662 13.8424 14 14.5073 14H32.0588C32.7237 14 33.3615 14.2662 33.8317 14.7399C34.3019 15.2137 34.5661 15.8563 34.5661 16.5263V23.7011C33.7724 23.3241 32.9273 23.0686 32.0588 22.9432V19.0526H14.5073V31.6842H22.0294C22.0294 32.5684 22.1673 33.4147 22.3929 34.2105Z" fill="white"/>
</svg>
